<mxfile host="Electron" modified="2023-10-19T10:11:27.639Z" agent="Mozilla/5.0 (Windows NT 10.0; Win64; x64) AppleWebKit/537.36 (KHTML, like Gecko) draw.io/22.0.2 Chrome/114.0.5735.289 Electron/25.8.4 Safari/537.36" etag="SS_fDIF8W6OJsh2Ssatp" version="22.0.2" type="device">
  <diagram name="Página-1" id="bE1qTPRhqDWaUx5Q4rBU">
    <mxGraphModel dx="792" dy="1996" grid="1" gridSize="10" guides="1" tooltips="1" connect="1" arrows="1" fold="1" page="1" pageScale="1" pageWidth="827" pageHeight="1169" math="0" shadow="0">
      <root>
        <mxCell id="0" />
        <mxCell id="1" parent="0" />
        <mxCell id="G_RNrpnNhE9t_JsDFZRW-51" style="edgeStyle=orthogonalEdgeStyle;rounded=0;orthogonalLoop=1;jettySize=auto;html=1;exitX=0.5;exitY=0;exitDx=0;exitDy=0;entryX=0.5;entryY=0;entryDx=0;entryDy=0;" edge="1" parent="1" source="G_RNrpnNhE9t_JsDFZRW-1" target="G_RNrpnNhE9t_JsDFZRW-50">
          <mxGeometry relative="1" as="geometry" />
        </mxCell>
        <mxCell id="G_RNrpnNhE9t_JsDFZRW-67" style="edgeStyle=orthogonalEdgeStyle;rounded=0;orthogonalLoop=1;jettySize=auto;html=1;exitX=0.75;exitY=1;exitDx=0;exitDy=0;entryX=0.5;entryY=0;entryDx=0;entryDy=0;" edge="1" parent="1" source="G_RNrpnNhE9t_JsDFZRW-1" target="G_RNrpnNhE9t_JsDFZRW-62">
          <mxGeometry relative="1" as="geometry" />
        </mxCell>
        <mxCell id="G_RNrpnNhE9t_JsDFZRW-89" style="edgeStyle=orthogonalEdgeStyle;rounded=0;orthogonalLoop=1;jettySize=auto;html=1;exitX=0.25;exitY=1;exitDx=0;exitDy=0;entryX=0;entryY=0.5;entryDx=0;entryDy=0;" edge="1" parent="1" source="G_RNrpnNhE9t_JsDFZRW-1" target="G_RNrpnNhE9t_JsDFZRW-41">
          <mxGeometry relative="1" as="geometry" />
        </mxCell>
        <mxCell id="G_RNrpnNhE9t_JsDFZRW-1" value="EJERCICIO" style="rounded=0;whiteSpace=wrap;html=1;" vertex="1" parent="1">
          <mxGeometry x="320" y="40" width="160" height="80" as="geometry" />
        </mxCell>
        <mxCell id="G_RNrpnNhE9t_JsDFZRW-2" value="E_R" style="rounded=0;whiteSpace=wrap;html=1;" vertex="1" parent="1">
          <mxGeometry x="205" y="330" width="120" height="60" as="geometry" />
        </mxCell>
        <mxCell id="G_RNrpnNhE9t_JsDFZRW-3" value="DESCRIPCIÓN" style="rounded=0;whiteSpace=wrap;html=1;" vertex="1" parent="1">
          <mxGeometry x="350" y="330" width="120" height="60" as="geometry" />
        </mxCell>
        <mxCell id="G_RNrpnNhE9t_JsDFZRW-11" value="NOmbre" style="ellipse;whiteSpace=wrap;html=1;" vertex="1" parent="1">
          <mxGeometry x="325" y="650" width="110" height="50" as="geometry" />
        </mxCell>
        <mxCell id="G_RNrpnNhE9t_JsDFZRW-13" value="Nivel" style="ellipse;whiteSpace=wrap;html=1;" vertex="1" parent="1">
          <mxGeometry x="50" y="600" width="110" height="40" as="geometry" />
        </mxCell>
        <mxCell id="G_RNrpnNhE9t_JsDFZRW-14" value="Tipo" style="ellipse;whiteSpace=wrap;html=1;" vertex="1" parent="1">
          <mxGeometry x="630" y="600" width="110" height="40" as="geometry" />
        </mxCell>
        <mxCell id="G_RNrpnNhE9t_JsDFZRW-29" style="edgeStyle=orthogonalEdgeStyle;rounded=0;orthogonalLoop=1;jettySize=auto;html=1;exitX=0;exitY=0.5;exitDx=0;exitDy=0;entryX=0;entryY=0.5;entryDx=0;entryDy=0;" edge="1" parent="1" source="G_RNrpnNhE9t_JsDFZRW-18" target="G_RNrpnNhE9t_JsDFZRW-13">
          <mxGeometry relative="1" as="geometry" />
        </mxCell>
        <mxCell id="G_RNrpnNhE9t_JsDFZRW-57" style="edgeStyle=orthogonalEdgeStyle;rounded=0;orthogonalLoop=1;jettySize=auto;html=1;exitX=0.75;exitY=0;exitDx=0;exitDy=0;entryX=0;entryY=1;entryDx=0;entryDy=0;" edge="1" parent="1" source="G_RNrpnNhE9t_JsDFZRW-18" target="G_RNrpnNhE9t_JsDFZRW-55">
          <mxGeometry relative="1" as="geometry" />
        </mxCell>
        <mxCell id="G_RNrpnNhE9t_JsDFZRW-18" value="Nivel&amp;nbsp;&lt;br style=&quot;border-color: var(--border-color);&quot;&gt;Dificultad" style="rounded=0;whiteSpace=wrap;html=1;" vertex="1" parent="1">
          <mxGeometry x="50" y="510" width="115" height="60" as="geometry" />
        </mxCell>
        <mxCell id="G_RNrpnNhE9t_JsDFZRW-26" style="edgeStyle=orthogonalEdgeStyle;rounded=0;orthogonalLoop=1;jettySize=auto;html=1;exitX=1;exitY=0.5;exitDx=0;exitDy=0;entryX=1;entryY=0.5;entryDx=0;entryDy=0;" edge="1" parent="1" source="G_RNrpnNhE9t_JsDFZRW-22" target="G_RNrpnNhE9t_JsDFZRW-23">
          <mxGeometry relative="1" as="geometry" />
        </mxCell>
        <mxCell id="G_RNrpnNhE9t_JsDFZRW-27" style="edgeStyle=orthogonalEdgeStyle;rounded=0;orthogonalLoop=1;jettySize=auto;html=1;exitX=1;exitY=0.5;exitDx=0;exitDy=0;entryX=1;entryY=0.5;entryDx=0;entryDy=0;" edge="1" parent="1" source="G_RNrpnNhE9t_JsDFZRW-22" target="G_RNrpnNhE9t_JsDFZRW-11">
          <mxGeometry relative="1" as="geometry" />
        </mxCell>
        <mxCell id="G_RNrpnNhE9t_JsDFZRW-22" value="CATEGORÍA" style="rounded=0;whiteSpace=wrap;html=1;" vertex="1" parent="1">
          <mxGeometry x="320" y="520" width="120" height="60" as="geometry" />
        </mxCell>
        <mxCell id="G_RNrpnNhE9t_JsDFZRW-23" value="&lt;u&gt;id.&lt;br&gt;Categoria&lt;/u&gt;" style="ellipse;whiteSpace=wrap;html=1;" vertex="1" parent="1">
          <mxGeometry x="325" y="590" width="110" height="50" as="geometry" />
        </mxCell>
        <mxCell id="G_RNrpnNhE9t_JsDFZRW-36" value="" style="shape=requiredInterface;html=1;verticalLabelPosition=bottom;sketch=0;direction=south;" vertex="1" parent="1">
          <mxGeometry x="302.5" y="220" width="65" height="25" as="geometry" />
        </mxCell>
        <mxCell id="G_RNrpnNhE9t_JsDFZRW-86" style="edgeStyle=orthogonalEdgeStyle;rounded=0;orthogonalLoop=1;jettySize=auto;html=1;exitX=1;exitY=0.5;exitDx=0;exitDy=0;entryX=0.5;entryY=0;entryDx=0;entryDy=0;" edge="1" parent="1" source="G_RNrpnNhE9t_JsDFZRW-41" target="G_RNrpnNhE9t_JsDFZRW-2">
          <mxGeometry relative="1" as="geometry" />
        </mxCell>
        <mxCell id="G_RNrpnNhE9t_JsDFZRW-87" style="edgeStyle=orthogonalEdgeStyle;rounded=0;orthogonalLoop=1;jettySize=auto;html=1;exitX=1;exitY=0.5;exitDx=0;exitDy=0;entryX=0.5;entryY=0;entryDx=0;entryDy=0;" edge="1" parent="1" source="G_RNrpnNhE9t_JsDFZRW-41" target="G_RNrpnNhE9t_JsDFZRW-3">
          <mxGeometry relative="1" as="geometry" />
        </mxCell>
        <mxCell id="G_RNrpnNhE9t_JsDFZRW-41" value="Is a" style="triangle;whiteSpace=wrap;html=1;direction=south;" vertex="1" parent="1">
          <mxGeometry x="295" y="160" width="80" height="60" as="geometry" />
        </mxCell>
        <mxCell id="G_RNrpnNhE9t_JsDFZRW-45" style="edgeStyle=orthogonalEdgeStyle;rounded=0;orthogonalLoop=1;jettySize=auto;html=1;exitX=1;exitY=0.5;exitDx=0;exitDy=0;entryX=0.433;entryY=0.033;entryDx=0;entryDy=0;entryPerimeter=0;" edge="1" parent="1" source="G_RNrpnNhE9t_JsDFZRW-59">
          <mxGeometry relative="1" as="geometry">
            <mxPoint x="681.96" y="511.98" as="targetPoint" />
          </mxGeometry>
        </mxCell>
        <mxCell id="G_RNrpnNhE9t_JsDFZRW-47" style="edgeStyle=orthogonalEdgeStyle;rounded=0;orthogonalLoop=1;jettySize=auto;html=1;exitX=0;exitY=0.5;exitDx=0;exitDy=0;entryX=0.452;entryY=-0.017;entryDx=0;entryDy=0;entryPerimeter=0;" edge="1" parent="1" source="G_RNrpnNhE9t_JsDFZRW-48" target="G_RNrpnNhE9t_JsDFZRW-18">
          <mxGeometry relative="1" as="geometry" />
        </mxCell>
        <mxCell id="G_RNrpnNhE9t_JsDFZRW-49" value="" style="edgeStyle=orthogonalEdgeStyle;rounded=0;orthogonalLoop=1;jettySize=auto;html=1;exitX=0;exitY=0.5;exitDx=0;exitDy=0;entryX=0.452;entryY=-0.017;entryDx=0;entryDy=0;entryPerimeter=0;" edge="1" parent="1" source="G_RNrpnNhE9t_JsDFZRW-1" target="G_RNrpnNhE9t_JsDFZRW-48">
          <mxGeometry relative="1" as="geometry">
            <mxPoint x="320" y="80" as="sourcePoint" />
            <mxPoint x="102" y="509" as="targetPoint" />
          </mxGeometry>
        </mxCell>
        <mxCell id="G_RNrpnNhE9t_JsDFZRW-48" value="Tiene" style="rhombus;whiteSpace=wrap;html=1;" vertex="1" parent="1">
          <mxGeometry x="45" y="140" width="107" height="80" as="geometry" />
        </mxCell>
        <mxCell id="G_RNrpnNhE9t_JsDFZRW-50" value="&lt;u&gt;id. ejercicio&lt;/u&gt;" style="ellipse;whiteSpace=wrap;html=1;" vertex="1" parent="1">
          <mxGeometry x="500" y="20" width="120" height="50" as="geometry" />
        </mxCell>
        <mxCell id="G_RNrpnNhE9t_JsDFZRW-52" value="1:N" style="text;html=1;align=center;verticalAlign=middle;resizable=0;points=[];autosize=1;strokeColor=none;fillColor=none;" vertex="1" parent="1">
          <mxGeometry x="40" y="128" width="40" height="30" as="geometry" />
        </mxCell>
        <mxCell id="G_RNrpnNhE9t_JsDFZRW-53" value="(1,n)" style="text;html=1;align=center;verticalAlign=middle;resizable=0;points=[];autosize=1;strokeColor=none;fillColor=none;" vertex="1" parent="1">
          <mxGeometry x="275" y="48" width="50" height="30" as="geometry" />
        </mxCell>
        <mxCell id="G_RNrpnNhE9t_JsDFZRW-54" value="(1,1)" style="text;html=1;align=center;verticalAlign=middle;resizable=0;points=[];autosize=1;strokeColor=none;fillColor=none;" vertex="1" parent="1">
          <mxGeometry x="55" y="478" width="50" height="30" as="geometry" />
        </mxCell>
        <mxCell id="G_RNrpnNhE9t_JsDFZRW-55" value="&lt;u&gt;Id. Level&lt;/u&gt;" style="ellipse;whiteSpace=wrap;html=1;" vertex="1" parent="1">
          <mxGeometry x="130" y="450" width="100" height="40" as="geometry" />
        </mxCell>
        <mxCell id="G_RNrpnNhE9t_JsDFZRW-58" value="Enumerar:&lt;br&gt;.Facil&lt;br&gt;&amp;nbsp; .Medio&lt;br&gt;.Dificil" style="text;html=1;align=center;verticalAlign=middle;resizable=0;points=[];autosize=1;strokeColor=none;fillColor=none;" vertex="1" parent="1">
          <mxGeometry x="58.5" y="640" width="80" height="70" as="geometry" />
        </mxCell>
        <mxCell id="G_RNrpnNhE9t_JsDFZRW-60" value="" style="edgeStyle=orthogonalEdgeStyle;rounded=0;orthogonalLoop=1;jettySize=auto;html=1;exitX=1;exitY=0.5;exitDx=0;exitDy=0;entryX=0.433;entryY=0.033;entryDx=0;entryDy=0;entryPerimeter=0;" edge="1" parent="1" source="G_RNrpnNhE9t_JsDFZRW-1" target="G_RNrpnNhE9t_JsDFZRW-59">
          <mxGeometry relative="1" as="geometry">
            <mxPoint x="480" y="80" as="sourcePoint" />
            <mxPoint x="682" y="512" as="targetPoint" />
          </mxGeometry>
        </mxCell>
        <mxCell id="G_RNrpnNhE9t_JsDFZRW-59" value="Consta" style="rhombus;whiteSpace=wrap;html=1;" vertex="1" parent="1">
          <mxGeometry x="630" y="180" width="110" height="80" as="geometry" />
        </mxCell>
        <mxCell id="G_RNrpnNhE9t_JsDFZRW-61" value="(1,!)" style="text;html=1;align=center;verticalAlign=middle;resizable=0;points=[];autosize=1;strokeColor=none;fillColor=none;" vertex="1" parent="1">
          <mxGeometry x="480" y="58" width="40" height="30" as="geometry" />
        </mxCell>
        <mxCell id="G_RNrpnNhE9t_JsDFZRW-70" style="edgeStyle=orthogonalEdgeStyle;rounded=0;orthogonalLoop=1;jettySize=auto;html=1;exitX=0.5;exitY=1;exitDx=0;exitDy=0;entryX=0.5;entryY=0;entryDx=0;entryDy=0;" edge="1" parent="1" source="G_RNrpnNhE9t_JsDFZRW-62" target="G_RNrpnNhE9t_JsDFZRW-22">
          <mxGeometry relative="1" as="geometry">
            <Array as="points">
              <mxPoint x="495" y="440" />
              <mxPoint x="380" y="440" />
            </Array>
          </mxGeometry>
        </mxCell>
        <mxCell id="G_RNrpnNhE9t_JsDFZRW-62" value="Pertenece" style="rhombus;whiteSpace=wrap;html=1;" vertex="1" parent="1">
          <mxGeometry x="440" y="180" width="110" height="80" as="geometry" />
        </mxCell>
        <mxCell id="G_RNrpnNhE9t_JsDFZRW-64" value="N:1" style="text;html=1;align=center;verticalAlign=middle;resizable=0;points=[];autosize=1;strokeColor=none;fillColor=none;" vertex="1" parent="1">
          <mxGeometry x="705" y="175" width="40" height="30" as="geometry" />
        </mxCell>
        <mxCell id="G_RNrpnNhE9t_JsDFZRW-65" value="(1,n)" style="text;html=1;align=center;verticalAlign=middle;resizable=0;points=[];autosize=1;strokeColor=none;fillColor=none;" vertex="1" parent="1">
          <mxGeometry x="675" y="478" width="50" height="30" as="geometry" />
        </mxCell>
        <mxCell id="G_RNrpnNhE9t_JsDFZRW-66" value="Enumerar:&lt;br style=&quot;border-color: var(--border-color);&quot;&gt;.P.Parcial&lt;br&gt;&amp;nbsp;.Solucion" style="text;html=1;align=center;verticalAlign=middle;resizable=0;points=[];autosize=1;strokeColor=none;fillColor=none;" vertex="1" parent="1">
          <mxGeometry x="650" y="645" width="80" height="60" as="geometry" />
        </mxCell>
        <mxCell id="G_RNrpnNhE9t_JsDFZRW-68" value="(1,n)" style="text;html=1;align=center;verticalAlign=middle;resizable=0;points=[];autosize=1;strokeColor=none;fillColor=none;" vertex="1" parent="1">
          <mxGeometry x="432.5" y="120" width="50" height="30" as="geometry" />
        </mxCell>
        <mxCell id="G_RNrpnNhE9t_JsDFZRW-69" value="1:N" style="text;html=1;align=center;verticalAlign=middle;resizable=0;points=[];autosize=1;strokeColor=none;fillColor=none;" vertex="1" parent="1">
          <mxGeometry x="550" y="198" width="40" height="30" as="geometry" />
        </mxCell>
        <mxCell id="G_RNrpnNhE9t_JsDFZRW-71" value="(1.1)" style="text;html=1;align=center;verticalAlign=middle;resizable=0;points=[];autosize=1;strokeColor=none;fillColor=none;" vertex="1" parent="1">
          <mxGeometry x="375" y="488" width="50" height="30" as="geometry" />
        </mxCell>
        <mxCell id="G_RNrpnNhE9t_JsDFZRW-75" value="&lt;u&gt;Id. Cont&lt;/u&gt;" style="ellipse;whiteSpace=wrap;html=1;" vertex="1" parent="1">
          <mxGeometry x="510" y="470" width="110" height="40" as="geometry" />
        </mxCell>
        <mxCell id="G_RNrpnNhE9t_JsDFZRW-79" style="edgeStyle=orthogonalEdgeStyle;rounded=0;orthogonalLoop=1;jettySize=auto;html=1;exitX=0.5;exitY=1;exitDx=0;exitDy=0;entryX=0.5;entryY=0;entryDx=0;entryDy=0;" edge="1" parent="1" source="G_RNrpnNhE9t_JsDFZRW-77" target="G_RNrpnNhE9t_JsDFZRW-14">
          <mxGeometry relative="1" as="geometry" />
        </mxCell>
        <mxCell id="G_RNrpnNhE9t_JsDFZRW-81" style="edgeStyle=orthogonalEdgeStyle;rounded=0;orthogonalLoop=1;jettySize=auto;html=1;exitX=0;exitY=0.25;exitDx=0;exitDy=0;entryX=0.5;entryY=1;entryDx=0;entryDy=0;" edge="1" parent="1" source="G_RNrpnNhE9t_JsDFZRW-77" target="G_RNrpnNhE9t_JsDFZRW-75">
          <mxGeometry relative="1" as="geometry" />
        </mxCell>
        <mxCell id="G_RNrpnNhE9t_JsDFZRW-77" value="CONTENIDO" style="shape=ext;margin=3;double=1;whiteSpace=wrap;html=1;align=center;" vertex="1" parent="1">
          <mxGeometry x="620" y="510" width="125" height="60" as="geometry" />
        </mxCell>
      </root>
    </mxGraphModel>
  </diagram>
</mxfile>
